<svg width="420" height="399" viewBox="0 0 420 399" fill="none" xmlns="http://www.w3.org/2000/svg">
<path fill-rule="evenodd" clip-rule="evenodd" d="M70.0004 92.0857V193.349C70.0004 242.858 93.3891 310.389 194.539 346.465C204.509 350.01 215.492 350.01 225.462 346.465C326.568 310.447 350 242.434 350 193.349V92.0857C350.027 88.263 348.864 84.518 346.658 81.321C344.423 78.0891 341.254 75.5379 337.532 73.9727C297.217 57.6965 253.802 49.4958 210 49.8831C166.195 49.4973 122.777 57.7009 82.4604 73.981C78.7241 75.5604 75.5479 78.1207 73.3429 81.3293C71.1384 84.524 69.9756 88.2658 70.0004 92.0857ZM158.962 200.688H149.538C148.819 202.852 147.31 204.699 145.282 205.897C143.254 207.095 140.842 207.564 138.482 207.22C136.122 206.875 133.969 205.74 132.413 204.019C130.858 202.299 130.001 200.106 129.999 197.837V184.537C130.001 182.269 130.858 180.076 132.413 178.355C133.969 176.634 136.122 175.499 138.482 175.155C140.842 174.81 143.254 175.279 145.282 176.477C147.31 177.675 148.819 179.523 149.538 181.686H158.962C160.286 175.225 162.964 169.082 166.837 163.623L161 158.07C159.102 159.776 156.577 160.708 153.964 160.667C151.352 160.626 148.86 159.616 147.022 157.852C145.183 156.088 144.145 153.711 144.128 151.229C144.11 148.747 145.117 146.357 146.93 144.571L160.93 131.271C162.811 129.548 165.326 128.592 167.939 128.608C170.552 128.624 173.054 129.611 174.911 131.358C176.767 133.104 177.831 135.471 177.874 137.953C177.917 140.435 176.936 142.834 175.14 144.637L180.985 150.19C186.731 146.508 193.197 143.961 199.999 142.7V133.748C197.722 133.065 195.777 131.631 194.516 129.705C193.255 127.778 192.761 125.487 193.124 123.245C193.487 121.003 194.682 118.958 196.493 117.48C198.304 116.002 200.613 115.188 203 115.186H217C219.388 115.188 221.696 116.002 223.508 117.48C225.319 118.958 226.514 121.003 226.877 123.245C227.239 125.487 226.745 127.778 225.485 129.705C224.224 131.631 222.279 133.065 220.002 133.748V142.7C226.803 143.959 233.269 146.503 239.015 150.182L244.86 144.637C243.065 142.834 242.084 140.435 242.127 137.953C242.17 135.471 243.234 133.104 245.09 131.358C246.947 129.611 249.449 128.624 252.062 128.608C254.674 128.592 257.19 129.548 259.07 131.271L273.07 144.571C274.884 146.357 275.89 148.747 275.873 151.229C275.856 153.711 274.817 156.088 272.979 157.852C271.141 159.616 268.649 160.626 266.037 160.667C263.424 160.708 260.899 159.776 259 158.07L253.155 163.623C257.031 169.081 259.712 175.224 261.039 181.686H270.463C271.182 179.523 272.691 177.675 274.719 176.477C276.747 175.279 279.159 174.81 281.519 175.155C283.879 175.499 286.032 176.634 287.587 178.355C289.143 180.076 290 182.269 290.002 184.537V197.837C290 200.106 289.143 202.299 287.587 204.019C286.032 205.74 283.879 206.875 281.519 207.22C279.159 207.564 276.747 207.095 274.719 205.897C272.691 204.699 271.182 202.852 270.463 200.688H261.039C260.039 205.552 258.269 210.244 255.789 214.604L266 224.304C267.899 222.599 270.424 221.667 273.037 221.708C275.649 221.748 278.141 222.759 279.979 224.523C281.817 226.286 282.856 228.663 282.873 231.145C282.89 233.628 281.884 236.017 280.07 237.804L266.07 251.104C264.19 252.827 261.674 253.783 259.062 253.766C256.449 253.75 253.947 252.763 252.09 251.017C250.234 249.271 249.17 246.903 249.127 244.422C249.084 241.94 250.065 239.541 251.86 237.737L243.023 229.342C236.374 234.552 228.461 238.103 220.002 239.674V248.627C222.279 249.309 224.224 250.744 225.485 252.67C226.745 254.596 227.239 256.888 226.877 259.13C226.514 261.372 225.319 263.417 223.508 264.895C221.696 266.373 219.388 267.186 217 267.188H203C200.613 267.186 198.304 266.373 196.493 264.895C194.682 263.417 193.487 261.372 193.124 259.13C192.761 256.888 193.255 254.596 194.516 252.67C195.777 250.744 197.722 249.309 199.999 248.627V239.674C193.197 238.416 186.731 235.872 180.985 232.193L175.14 237.737C176.936 239.541 177.917 241.94 177.874 244.422C177.831 246.903 176.767 249.271 174.911 251.017C173.054 252.763 170.552 253.75 167.939 253.766C165.326 253.783 162.811 252.827 160.93 251.104L146.93 237.804C145.117 236.017 144.11 233.628 144.128 231.145C144.145 228.663 145.183 226.286 147.022 224.523C148.86 222.759 151.352 221.748 153.964 221.708C156.577 221.667 159.102 222.599 161 224.304L166.845 218.752C162.97 213.293 160.289 207.15 158.962 200.688Z" fill="white"/>
</svg>
